<?xml version="1.0" encoding="UTF-8" standalone="no"?>
<svg width="79px" height="94px" viewBox="0 0 79 94" version="1.1" xmlns="http://www.w3.org/2000/svg" xmlns:xlink="http://www.w3.org/1999/xlink">
    <!-- Generator: Sketch 39.1 (31720) - http://www.bohemiancoding.com/sketch -->
    <title>red-passport</title>
    <desc>Created with Sketch.</desc>
    <defs></defs>
    <g id="Page-1" stroke="none" stroke-width="1" fill="none" fill-rule="evenodd">
        <g id="1472131948_travel_journey-10" transform="translate(1.000000, 1.000000)">
            <path d="M75,92 L4.1,92 C1.9,92 0,90.7 0,88.4 L0,3.6 C0,1.4 1.9,0 4.1,0 L75,0 L75,92 L75,92 Z" id="Shape" fill="#E02F2F"></path>
            <path d="M75,92 L4.1,92 C1.9,92 0,90.7 0,88.4 L0,3.6 C0,1.4 1.9,0 4.1,0 L75,0 L75,92 L75,92 Z" id="Shape" stroke="#3D3D3D" stroke-width="2"></path>
            <path d="M8.2,92 C6,92 4,90.7 4,88.4 L4,3.6 C4,1.4 6,0 8.2,0 L77,0 L77,92 L8.2,92 Z" id="Shape" fill="#E12F2F"></path>
            <path d="M77,92 L8.2,92 C6,92 4,90.7 4,88.4 L4,3.6 C4,1.4 6,0 8.2,0 L77,0 L77,92 L77,92 Z" id="Shape" stroke="#3D3D3D" stroke-width="2"></path>
            <circle id="Oval" stroke="#3D3D3D" stroke-width="2" cx="40.2" cy="34.3" r="21.5"></circle>
            <path d="M41,12 L41,56" id="Shape" stroke="#3D3D3D" stroke-width="2"></path>
            <path d="M46.1,13.6 C46.1,13.6 52.4,21.8 52.4,34.3 C52.4,46.8 47.1,54.7 47.1,54.7" id="Shape" stroke="#3D3D3D" stroke-width="2"></path>
            <path d="M35.3,13.6 C35.3,13.6 29,21.8 29,34.3 C29,46.8 34.3,54.7 34.3,54.7" id="Shape" stroke="#3D3D3D" stroke-width="2"></path>
            <path d="M18,34 L62,34" id="Shape" stroke="#3D3D3D" stroke-width="2"></path>
            <path d="M21,24 L59,24" id="Shape" stroke="#3D3D3D" stroke-width="2"></path>
            <path d="M21,44 L59,44" id="Shape" stroke="#3D3D3D" stroke-width="2"></path>
            <path d="M18,70 L63,70" id="Shape" stroke="#3D3D3D" stroke-width="2"></path>
        </g>
    </g>
</svg>